<?xml version="1.0" encoding="utf-8"?>
<svg xmlns="http://www.w3.org/2000/svg" xmlns:xlink="http://www.w3.org/1999/xlink" style="margin: auto; background: none; display: block; shape-rendering: auto;" width="204px" height="204px" viewBox="0 0 100 100" preserveAspectRatio="xMidYMid">
<g transform="translate(50 50)">
<g>
<animateTransform attributeName="transform" type="rotate" values="0;36" keyTimes="0;1" dur="0.2s" repeatCount="indefinite"></animateTransform><path d="M24.387496796514398 -5.5 L32.3874967965144 -5.5 L32.3874967965144 5.5 L24.387496796514398 5.5 A25 25 0 0 1 22.96271824625334 9.885017488258883 L22.96271824625334 9.885017488258883 L29.434854201252918 14.587299506598669 L22.969216426035715 23.48648644472309 L16.497080471036135 18.784204426383305 A25 25 0 0 1 12.76696180001088 21.49429427538999 L12.76696180001088 21.49429427538999 L15.23909775501046 29.10274640575122 L4.777476075763774 32.50193334387564 L2.3053401207641953 24.893481213514413 A25 25 0 0 1 -2.3053401207641926 24.893481213514413 L-2.3053401207641926 24.893481213514413 L-4.777476075763772 32.50193334387564 L-15.239097755010464 29.10274640575122 L-12.766961800010884 21.49429427538999 A25 25 0 0 1 -16.497080471036128 18.78420442638331 L-16.497080471036128 18.78420442638331 L-22.969216426035707 23.4864864447231 L-29.434854201252918 14.587299506598669 L-22.96271824625334 9.885017488258882 A25 25 0 0 1 -24.387496796514398 5.500000000000008 L-24.387496796514398 5.500000000000008 L-32.3874967965144 5.500000000000009 L-32.3874967965144 -5.500000000000001 L-24.387496796514398 -5.500000000000002 A25 25 0 0 1 -22.962718246253342 -9.885017488258876 L-22.962718246253342 -9.885017488258876 L-29.43485420125292 -14.587299506598661 L-22.969216426035715 -23.48648644472309 L-16.497080471036135 -18.784204426383308 A25 25 0 0 1 -12.76696180001089 -21.494294275389986 L-12.76696180001089 -21.494294275389986 L-15.239097755010471 -29.102746405751216 L-4.777476075763774 -32.50193334387564 L-2.305340120764193 -24.893481213514413 A25 25 0 0 1 2.3053401207641837 -24.893481213514413 L2.3053401207641837 -24.893481213514413 L4.7774760757637615 -32.50193334387564 L15.239097755010459 -29.10274640575122 L12.76696180001088 -21.49429427538999 A25 25 0 0 1 16.497080471036128 -18.784204426383315 L16.497080471036128 -18.784204426383315 L22.969216426035707 -23.486486444723102 L29.434854201252918 -14.587299506598672 L22.96271824625334 -9.885017488258885 A25 25 0 0 1 24.387496796514398 -5.500000000000011 M0 -15A15 15 0 1 0 0 15 A15 15 0 1 0 0 -15" fill="#6ea0f9"></path></g></g>
<!-- [ldio] generated by https://loading.io/ --></svg>